<svg xmlns="http://www.w3.org/2000/svg" viewBox="0 0 480 480" width="480" height="480">
<g fill="black" stroke="none">
<path d="M 68.00 233.50 L 46.00 230.50 L 36.50 224.00 L 41.00 202.50 L 59.00 203.50 L 64.00 201.50 L 67.50 195.00 L 62.50 185.00 L 41.50 166.00 L 36.50 154.00 L 36.50 146.00 L 41.50 137.00 L 49.00 129.50 L 60.00 124.50 L 81.00 126.50 L 87.00 129.50 L 93.50 136.00 L 93.50 139.00 L 87.00 149.50 L 72.00 151.50 L 68.50 155.00 L 68.50 159.00 L 70.50 163.00 L 92.50 185.00 L 98.50 197.00 L 98.50 207.00 L 90.50 223.00 L 68.00 233.50 Z"/>
<path d="M 224.00 227.50 L 203.00 227.50 L 201.50 226.00 L 201.50 195.00 L 194.00 193.50 L 182.50 194.00 L 179.50 219.00 L 177.00 226.50 L 158.50 226.00 L 156.50 171.00 L 156.50 129.00 L 158.00 127.50 L 185.50 131.00 L 182.50 165.00 L 184.00 167.50 L 196.00 168.50 L 197.50 167.00 L 199.00 132.50 L 220.00 134.50 L 223.50 137.00 L 222.50 171.00 L 225.50 223.00 L 224.00 227.50 Z"/>
<path d="M 136.00 226.50 L 124.00 221.50 L 113.00 213.50 L 100.50 194.00 L 101.50 170.00 L 105.50 156.00 L 113.50 141.00 L 121.00 133.50 L 127.00 131.50 L 145.00 133.50 L 147.50 136.00 L 148.50 142.00 L 148.50 147.00 L 136.00 156.50 L 126.50 167.00 L 122.50 179.00 L 123.50 188.00 L 128.50 199.00 L 135.00 206.50 L 145.50 213.00 L 141.50 221.00 L 136.00 226.50 Z"/>
<path d="M 322.00 223.50 L 292.00 220.50 L 277.00 214.50 L 271.50 209.00 L 268.50 193.00 L 268.50 182.00 L 275.50 157.00 L 286.00 144.50 L 296.00 137.50 L 322.00 135.50 L 331.50 138.00 L 325.50 159.00 L 323.00 161.50 L 306.00 164.50 L 297.50 173.00 L 295.50 178.00 L 295.50 193.00 L 300.00 197.50 L 321.00 198.50 L 322.50 200.00 L 323.50 221.00 L 322.00 223.50 Z"/>
<path d="M 332.00 373.50 L 300.00 372.50 L 273.00 337.50 L 268.50 369.00 L 266.00 371.50 L 246.50 370.00 L 244.50 312.00 L 244.50 271.00 L 246.00 269.50 L 272.00 269.50 L 273.50 271.00 L 273.00 301.50 L 316.00 266.50 L 319.00 265.50 L 320.50 267.00 L 317.50 299.00 L 298.00 314.50 L 291.50 322.00 L 329.50 367.00 L 332.50 371.00 L 332.00 373.50 Z"/>
<path d="M 224.00 377.50 L 221.00 377.50 L 207.00 368.50 L 193.50 357.00 L 182.50 337.00 L 181.50 332.00 L 184.50 304.00 L 192.50 287.00 L 204.00 273.50 L 223.00 266.50 L 229.00 266.50 L 234.50 285.00 L 224.00 291.50 L 211.50 303.00 L 204.50 318.00 L 204.50 328.00 L 207.50 336.00 L 232.50 360.00 L 224.00 377.50 Z"/>
<path d="M 137.00 369.50 L 113.00 369.50 L 111.50 368.00 L 106.00 315.50 L 83.00 359.50 L 80.50 359.00 L 64.00 318.50 L 56.50 364.00 L 55.00 365.50 L 33.50 364.00 L 47.50 275.00 L 50.00 268.50 L 68.50 268.00 L 85.00 308.50 L 99.50 266.00 L 108.00 263.50 L 122.50 264.00 L 138.50 368.00 L 137.00 369.50 Z"/>
<path d="M 393.00 224.50 L 367.00 223.50 L 354.00 193.50 L 353.50 221.00 L 347.00 222.50 L 332.50 219.00 L 337.50 135.00 L 339.00 132.50 L 363.50 133.00 L 362.00 163.50 L 390.00 138.50 L 395.50 137.00 L 394.50 169.00 L 369.50 182.00 L 393.00 224.50 Z"/>
<path d="M 170.00 269.50 L 154.00 268.50 L 144.50 255.00 L 144.50 247.00 L 147.50 241.00 L 156.00 234.50 L 167.00 233.50 L 173.00 235.50 L 177.50 238.00 L 181.50 245.00 L 181.50 256.00 L 176.50 266.00 L 170.00 269.50 Z"/>
<path d="M 361.00 276.50 L 346.00 274.50 L 337.50 264.00 L 335.50 257.00 L 336.50 251.00 L 347.00 239.50 L 359.00 238.50 L 365.00 240.50 L 375.50 255.00 L 376.50 263.00 L 374.50 266.00 L 368.00 273.50 L 361.00 276.50 Z"/>
<path d="M 417.00 384.50 L 405.00 380.50 L 400.50 376.00 L 396.50 367.00 L 397.50 358.00 L 410.00 345.50 L 430.00 345.50 L 438.50 357.00 L 439.50 367.00 L 436.50 375.00 L 433.00 378.50 L 417.00 384.50 Z"/>
<path d="M 424.00 125.50 L 411.00 124.50 L 405.50 119.00 L 404.50 102.00 L 413.00 92.50 L 431.00 92.50 L 439.50 102.00 L 440.50 107.00 L 437.50 116.00 L 429.00 124.50 L 424.00 125.50 Z"/>
<path d="M 349.00 373.50 L 340.00 373.50 L 338.50 372.00 L 340.50 288.00 L 343.00 283.50 L 367.00 283.50 L 368.50 285.00 L 369.50 300.00 L 369.50 372.00 L 349.00 373.50 Z"/>
<path d="M 259.00 133.50 L 239.50 130.00 L 237.50 112.00 L 243.00 102.50 L 252.00 100.50 L 264.00 102.50 L 267.50 105.00 L 270.50 120.00 L 259.00 133.50 Z"/>
<path d="M 434.00 228.50 L 407.00 227.50 L 405.50 226.00 L 404.50 161.00 L 405.50 133.00 L 407.00 131.50 L 432.50 132.00 L 436.50 225.00 L 434.00 228.50 Z"/>
<path d="M 259.00 226.50 L 237.00 226.50 L 235.50 225.00 L 236.50 141.00 L 238.00 138.50 L 259.00 139.50 L 260.50 141.00 L 260.50 225.00 L 259.00 226.50 Z"/>
<path d="M 170.00 372.50 L 146.50 371.00 L 145.50 275.00 L 148.00 273.50 L 175.00 274.50 L 176.50 276.00 L 172.50 363.00 L 170.00 372.50 Z"/>
<path d="M 434.00 339.50 L 401.50 339.00 L 400.50 272.00 L 403.00 235.50 L 429.00 235.50 L 434.50 238.00 L 434.00 339.50 Z"/>
</g></svg>