<?xml version="1.0" encoding="UTF-8" standalone="no"?>
<svg
   width="512"
   height="512"
   viewBox="0 0 512 512"
   version="1.1"
   id="svg2"
   sodipodi:docname="safari-pinned-tab.svg"
   inkscape:version="1.4 (e7c3feb1, 2024-10-09)"
   xmlns:inkscape="http://www.inkscape.org/namespaces/inkscape"
   xmlns:sodipodi="http://sodipodi.sourceforge.net/DTD/sodipodi-0.dtd"
   xmlns="http://www.w3.org/2000/svg"
   xmlns:svg="http://www.w3.org/2000/svg">
  <defs
     id="defs2" />
  <sodipodi:namedview
     id="namedview2"
     pagecolor="#ffffff"
     bordercolor="#000000"
     borderopacity="0.25"
     inkscape:showpageshadow="2"
     inkscape:pageopacity="0.0"
     inkscape:pagecheckerboard="0"
     inkscape:deskcolor="#d1d1d1"
     inkscape:zoom="0.05078125"
     inkscape:cx="246.15385"
     inkscape:cy="256"
     inkscape:window-width="1104"
     inkscape:window-height="245"
     inkscape:window-x="0"
     inkscape:window-y="38"
     inkscape:window-maximized="0"
     inkscape:current-layer="svg2" />
  <g
     fill="currentColor"
     stroke="none"
     id="g2">
    <path
       d="M 88.79 406.00 L 28.24 397.74 L 2.09 379.85 L 14.48 320.68 L 64.02 323.43 L 77.78 317.93 L 87.42 300.04 L 73.65 272.51 L 15.86 220.22 L 2.09 187.19 L 2.09 165.17 L 15.86 140.40 L 36.50 119.76 L 66.77 106.00 L 124.57 111.50 L 141.08 119.76 L 158.97 137.65 L 158.97 145.91 L 141.08 174.81 L 99.80 180.31 L 90.17 189.94 L 90.17 200.95 L 95.67 211.96 L 156.22 272.51 L 172.74 305.54 L 172.74 333.06 L 150.72 377.10 L 88.79 406.00 Z "
       id="path1" />
    <path
       d="M 505.66 406.00 L 437.74 406.00 L 433.49 401.75 L 417.92 253.17 L 352.83 377.70 L 345.76 376.28 L 299.06 261.66 L 277.83 390.43 L 273.59 394.68 L 212.74 390.43 L 252.36 138.55 L 259.43 120.15 L 311.79 118.74 L 358.49 233.36 L 399.53 113.08 L 423.59 106.00 L 464.62 107.42 L 509.91 401.75 L 505.66 406.00 Z "
       id="path2" />
  </g>
</svg>
